<svg xmlns="http://www.w3.org/2000/svg" viewBox="0 0 20 20"><defs><style>.cls-1{fill:#757575;}</style></defs><title>svg-icon-connect</title><g id="Слой_2" data-name="Слой 2"><g id="icons"><path class="cls-1" d="M18,0H2A2,2,0,0,0,0,2V12a2,2,0,0,0,2,2H9v4H4v2H16V18H11V14h7a2,2,0,0,0,2-2V2A2,2,0,0,0,18,0Zm0,2V6H2V2ZM2,12V8H18v4Z"/><rect class="cls-1" x="3" y="3" width="5" height="2"/><rect class="cls-1" x="3" y="9" width="5" height="2"/><circle class="cls-1" cx="18" cy="19" r="1"/><circle class="cls-1" cx="2" cy="19" r="1"/><circle class="cls-1" cx="13" cy="4" r="1"/><circle class="cls-1" cx="16" cy="4" r="1"/><circle class="cls-1" cx="13" cy="10" r="1"/><circle class="cls-1" cx="16" cy="10" r="1"/></g></g></svg>