<svg xmlns="http://www.w3.org/2000/svg" viewBox="0 0 44 44"><defs><style>.cls-1{fill:#201600;}</style></defs><title>icon-play</title><g id="Слой_2" data-name="Слой 2"><g id="Слой_1-2" data-name="Слой 1"><g id="Слой_2-2" data-name="Слой 2"><g id="Layer_1" data-name="Layer 1"><path class="cls-1" d="M17.67,32.71l-.47-1.17a27,27,0,0,1-2-10.25,26.84,26.84,0,0,1,2.08-10.51l.48-1.16L34,21.16Zm1-20a24.85,24.85,0,0,0-1.47,8.56,25,25,0,0,0,1.37,8.31l11.9-8.44Z"/><path class="cls-1" d="M22,44A22,22,0,1,1,44,22,22,22,0,0,1,22,44ZM22,2A20,20,0,1,0,42,22,20,20,0,0,0,22,2Z"/></g></g></g></g></svg>