<svg xmlns="http://www.w3.org/2000/svg" viewBox="0 0 23.71 23.41"><defs><style>.cls-1{fill:#757575;}</style></defs><title>svg-icon-database</title><g id="Слой_2" data-name="Слой 2"><g id="icons"><path class="cls-1" d="M13,17.57A17.36,17.36,0,0,1,9,18c-4.55,0-7-1.42-7-2V14.6A15.86,15.86,0,0,0,9,16a15.86,15.86,0,0,0,7-1.4V16h2V4c0-2.63-4.53-4-9-4S0,1.37,0,4V16c0,2.63,4.53,4,9,4a20.36,20.36,0,0,0,4-.39ZM9,2c4.55,0,7,1.42,7,2S13.55,6,9,6,2,4.58,2,4,4.45,2,9,2ZM2,6.6A15.86,15.86,0,0,0,9,8a15.86,15.86,0,0,0,7-1.4V8c0,.58-2.45,2-7,2S2,8.58,2,8Zm0,4A15.86,15.86,0,0,0,9,12a15.86,15.86,0,0,0,7-1.4V12c0,.58-2.45,2-7,2s-7-1.42-7-2Z"/><polygon class="cls-1" points="18 23.41 14.29 19.7 15.71 18.29 18 20.58 22.29 16.29 23.71 17.7 18 23.41"/></g></g></svg>