<svg xmlns="http://www.w3.org/2000/svg" viewBox="0 0 16 20"><defs><style>.cls-1{fill:#757575;}</style></defs><title>svg-icon-touch</title><g id="Слой_2" data-name="Слой 2"><g id="icons"><path class="cls-1" d="M15,20H8a1,1,0,0,1-.89-.55l-3-6A1,1,0,0,1,5,12H7V6a1,1,0,0,1,1.32-.95l3,1A1,1,0,0,1,12,7v4.22l3.24.81A1,1,0,0,1,16,13v6A1,1,0,0,1,15,20ZM8.62,18H14V13.78L10.76,13A1,1,0,0,1,10,12V7.72L9,7.39V13a1,1,0,0,1-1,1H6.62Z"/><path class="cls-1" d="M14,0H2A2,2,0,0,0,0,2V9a2,2,0,0,0,2,2H5V9H2V2H14V9h2V2A2,2,0,0,0,14,0Z"/></g></g></svg>