<svg xmlns="http://www.w3.org/2000/svg" viewBox="0 0 20 20"><defs><style>.cls-1{fill:#757575;}</style></defs><title>svg-icon-network</title><g id="Слой_2" data-name="Слой 2"><g id="icons"><path class="cls-1" d="M19,13H17V12a3,3,0,0,0-3-3H11V7h2a1,1,0,0,0,1-1V1a1,1,0,0,0-1-1H7A1,1,0,0,0,6,1V6A1,1,0,0,0,7,7H9V9H6a3,3,0,0,0-3,3v1H1a1,1,0,0,0-1,1v5a1,1,0,0,0,1,1H7a1,1,0,0,0,1-1V14a1,1,0,0,0-1-1H5V12a1,1,0,0,1,1-1h8a1,1,0,0,1,1,1v1H13a1,1,0,0,0-1,1v5a1,1,0,0,0,1,1h6a1,1,0,0,0,1-1V14A1,1,0,0,0,19,13ZM8,5V2h4V5ZM6,18H2V15H6Zm12,0H14V15h4Z"/></g></g></svg>