<svg xmlns="http://www.w3.org/2000/svg" viewBox="0 0 20.96 23.01"><defs><style>.cls-1{stroke:#000;stroke-miterlimit:10;stroke-width:0.75px;}</style></defs><title>svg-icon-android</title><g id="Слой_2" data-name="Слой 2"><g id="icons"><path class="cls-1" d="M16.74,8c0-.53-.16-.69-.68-.69H4.83c-.43,0-.61.18-.61.62,0,2.53,0,5.07,0,7.6a3.19,3.19,0,0,0,1.8,3,.23.23,0,0,1,.13.24q0,1.24,0,2.48a1.35,1.35,0,0,0,1.44,1.39A1.35,1.35,0,0,0,9,21.24c0-.74,0-1.47,0-2.21,0-.14,0-.19.18-.19h2.53c.14,0,.19,0,.19.18,0,.61,0,1.22,0,1.83a4.23,4.23,0,0,0,0,.65,1.36,1.36,0,0,0,1.49,1.12,1.33,1.33,0,0,0,1.38-1.36c0-.83,0-1.67,0-2.5,0-.1,0-.17.11-.24a3.22,3.22,0,0,0,1.82-3.07Q16.74,11.73,16.74,8ZM8.08,21.21c0,.33-.15.45-.51.45s-.47-.13-.47-.46,0-.72,0-1.08,0-.72,0-1.08c0-.14,0-.2.18-.19a4.82,4.82,0,0,0,.65,0c.12,0,.15,0,.15.15C8.08,19.74,8.08,20.47,8.08,21.21Zm5.77,0c0,.32-.15.44-.49.44s-.48-.12-.48-.45,0-.74,0-1.1,0-.74,0-1.1c0-.12,0-.16.15-.15s.47,0,.7,0,.13,0,.13.14C13.85,19.73,13.86,20.48,13.85,21.22Zm1.91-5.6A2.24,2.24,0,0,1,13.5,17.9H8.91a15.38,15.38,0,0,1-1.8,0,2.22,2.22,0,0,1-1.91-2.1c0-2.44,0-4.88,0-7.33,0-.19.1-.16.21-.16H15.54c.17,0,.22,0,.22.22Q15.76,12.05,15.76,15.61Z"/><path class="cls-1" d="M16.33,5.79A5.38,5.38,0,0,0,14.5,2.18c-.1-.09-.08-.13,0-.21l.59-.77a.48.48,0,1,0-.76-.59c-.21.27-.43.54-.63.82-.08.11-.14.12-.27.07a7.37,7.37,0,0,0-6,.08.19.19,0,0,1-.27-.07C6.87,1.2,6.63.88,6.39.58a.48.48,0,1,0-.75.59l.44.57c.11.14.3.28.31.43s-.24.25-.35.4l0,0a5.48,5.48,0,0,0-1.35,3c-.08.54.08.73.63.73h10.5C16.15,6.35,16.38,6.12,16.33,5.79Zm-1.26-.4H5.89c-.2,0-.22-.06-.17-.23A4.08,4.08,0,0,1,9.19,2a6.46,6.46,0,0,1,3.5.26,4,4,0,0,1,2.57,3C15.3,5.39,15.22,5.39,15.08,5.39Z"/><path class="cls-1" d="M3.26,8.8a1.44,1.44,0,1,0-2.89,0q0,2.34,0,4.69A1.46,1.46,0,0,0,1.82,15a1.46,1.46,0,0,0,1.44-1.53q0-1.16,0-2.32C3.26,10.38,3.26,9.59,3.26,8.8Zm-1,4.6a1.18,1.18,0,0,1,0,.29.47.47,0,0,1-.91,0,1.26,1.26,0,0,1,0-.31c0-.75,0-1.5,0-2.25s0-1.47,0-2.21a1.26,1.26,0,0,1,0-.29.47.47,0,0,1,.92,0,1.19,1.19,0,0,1,0,.29Q2.31,11.16,2.31,13.4Z"/><path class="cls-1" d="M20.58,8.8a1.44,1.44,0,1,0-2.89,0q0,2.35,0,4.71a1.44,1.44,0,1,0,2.89,0q0-1.17,0-2.34C20.58,10.38,20.58,9.59,20.58,8.8Zm-1,4.6a1.18,1.18,0,0,1,0,.29.47.47,0,0,1-.91,0,1.26,1.26,0,0,1,0-.31c0-.75,0-1.5,0-2.25s0-1.47,0-2.21a1.23,1.23,0,0,1,0-.31.47.47,0,0,1,.45-.34.48.48,0,0,1,.46.33,1,1,0,0,1,0,.31Q19.63,11.16,19.62,13.4Z"/></g></g></svg>