<svg xmlns="http://www.w3.org/2000/svg" viewBox="0 0 20.96 23.01"><defs><style>.cls-1{stroke:#000;stroke-miterlimit:10;stroke-width:.75px}</style></defs><title>svg-icon-android</title><g id="Слой_2" data-name="Слой 2"><path class="cls-1" d="M16.74 8c0-.53-.16-.69-.68-.69H4.83c-.43 0-.61.18-.61.62v7.6a3.19 3.19 0 0 0 1.8 3 .23.23 0 0 1 .13.24v2.48a1.35 1.35 0 0 0 1.44 1.39A1.35 1.35 0 0 0 9 21.24v-2.21c0-.14 0-.19.18-.19h2.53c.14 0 .19 0 .19.18v1.83a4.23 4.23 0 0 0 0 .65 1.36 1.36 0 0 0 1.49 1.12 1.33 1.33 0 0 0 1.38-1.36v-2.5c0-.1 0-.17.11-.24a3.22 3.22 0 0 0 1.82-3.07q.04-3.72.04-7.45zM8.08 21.21c0 .33-.15.45-.51.45s-.47-.13-.47-.46v-2.16c0-.14 0-.2.18-.19a4.82 4.82 0 0 0 .65 0c.12 0 .15 0 .15.15v2.21zm5.77 0c0 .32-.15.44-.49.44s-.48-.12-.48-.45V19c0-.12 0-.16.15-.15s.47 0 .7 0 .13 0 .13.14c-.01.74 0 1.49-.01 2.23zm1.91-5.6a2.24 2.24 0 0 1-2.26 2.29H8.91a15.38 15.38 0 0 1-1.8 0 2.22 2.22 0 0 1-1.91-2.1V8.47c0-.19.1-.16.21-.16h10.13c.17 0 .22 0 .22.22v7.08zm.57-9.82a5.38 5.38 0 0 0-1.83-3.61c-.1-.09-.08-.13 0-.21l.59-.77a.48.48 0 1 0-.76-.59c-.21.27-.43.54-.63.82-.08.11-.14.12-.27.07a7.37 7.37 0 0 0-6 .08.19.19 0 0 1-.27-.07c-.29-.31-.53-.63-.77-.93a.48.48 0 1 0-.75.59l.44.57c.11.14.3.28.31.43s-.24.25-.35.4a5.48 5.48 0 0 0-1.35 3c-.08.54.08.73.63.73h10.5c.33.05.56-.18.51-.51zm-1.26-.4H5.89c-.2 0-.22-.06-.17-.23A4.08 4.08 0 0 1 9.19 2a6.46 6.46 0 0 1 3.5.26 4 4 0 0 1 2.57 3c.04.13-.04.13-.18.13zM3.26 8.8a1.44 1.44 0 1 0-2.89 0v4.69A1.46 1.46 0 0 0 1.82 15a1.46 1.46 0 0 0 1.44-1.53V8.8zm-1 4.6a1.18 1.18 0 0 1 0 .29.47.47 0 0 1-.91 0 1.26 1.26 0 0 1 0-.31V8.92a1.26 1.26 0 0 1 0-.29.47.47 0 0 1 .92 0 1.19 1.19 0 0 1 0 .29q.04 2.24.04 4.48zm18.32-4.6a1.44 1.44 0 1 0-2.89 0v4.71a1.44 1.44 0 1 0 2.89 0V8.8zm-1 4.6a1.18 1.18 0 0 1 0 .29.47.47 0 0 1-.91 0 1.26 1.26 0 0 1 0-.31V8.92a1.23 1.23 0 0 1 0-.31.47.47 0 0 1 .45-.34.48.48 0 0 1 .46.33 1 1 0 0 1 0 .31q.05 2.25.04 4.49z" id="icons"/></g></svg>