<svg xmlns="http://www.w3.org/2000/svg" viewBox="0 0 16 20"><defs><style>.cls-1{fill:#757575}</style></defs><title>svg-icon-touch</title><g id="Слой_2" data-name="Слой 2"><g id="icons"><path class="cls-1" d="M15 20H8a1 1 0 0 1-.89-.55l-3-6A1 1 0 0 1 5 12h2V6a1 1 0 0 1 1.32-.95l3 1A1 1 0 0 1 12 7v4.22l3.24.81A1 1 0 0 1 16 13v6a1 1 0 0 1-1 1zm-6.38-2H14v-4.22L10.76 13a1 1 0 0 1-.76-1V7.72l-1-.33V13a1 1 0 0 1-1 1H6.62z"/><path class="cls-1" d="M14 0H2a2 2 0 0 0-2 2v7a2 2 0 0 0 2 2h3V9H2V2h12v7h2V2a2 2 0 0 0-2-2z"/></g></g></svg>