<svg xmlns="http://www.w3.org/2000/svg" viewBox="0 0 20 20"><defs><style>.cls-1{fill:#757575}</style></defs><title>svg-icon-network</title><g id="Слой_2" data-name="Слой 2"><path class="cls-1" d="M19 13h-2v-1a3 3 0 0 0-3-3h-3V7h2a1 1 0 0 0 1-1V1a1 1 0 0 0-1-1H7a1 1 0 0 0-1 1v5a1 1 0 0 0 1 1h2v2H6a3 3 0 0 0-3 3v1H1a1 1 0 0 0-1 1v5a1 1 0 0 0 1 1h6a1 1 0 0 0 1-1v-5a1 1 0 0 0-1-1H5v-1a1 1 0 0 1 1-1h8a1 1 0 0 1 1 1v1h-2a1 1 0 0 0-1 1v5a1 1 0 0 0 1 1h6a1 1 0 0 0 1-1v-5a1 1 0 0 0-1-1zM8 5V2h4v3zM6 18H2v-3h4zm12 0h-4v-3h4z" id="icons"/></g></svg>