<svg xmlns="http://www.w3.org/2000/svg" viewBox="0 0 20 20"><defs><style>.cls-1{fill:#757575}</style></defs><title>svg-icon-connect</title><g id="Слой_2" data-name="Слой 2"><g id="icons"><path class="cls-1" d="M18 0H2a2 2 0 0 0-2 2v10a2 2 0 0 0 2 2h7v4H4v2h12v-2h-5v-4h7a2 2 0 0 0 2-2V2a2 2 0 0 0-2-2zm0 2v4H2V2zM2 12V8h16v4z"/><path class="cls-1" d="M3 3h5v2H3zm0 6h5v2H3z"/><circle class="cls-1" cx="18" cy="19" r="1"/><circle class="cls-1" cx="2" cy="19" r="1"/><circle class="cls-1" cx="13" cy="4" r="1"/><circle class="cls-1" cx="16" cy="4" r="1"/><circle class="cls-1" cx="13" cy="10" r="1"/><circle class="cls-1" cx="16" cy="10" r="1"/></g></g></svg>